# xmcd CD database file
#
# Track frame offsets:
#	151
#	26514
#	50539
#	69441
#	92452
#	104348
#	126502
#
# Disc length: 1883 seconds
#
# Revision: 0
# Processed by: cddbd v1.5.1PL0 Copyright (c) Steve Scherf et al.
# Submitted via: CDex 1.50
#
DISCID=58075907
DTITLE=Mani Sharma - Sree Anjeneyam
DYEAR=2004
DGENRE=Telugu
TTITLE0=Ooregi Raavayya
TTITLE1=Rama Rama Raghurama 
TTITLE2=Avvayi Tuvvayi 
TTITLE3=Poola Ghuma Ghuma 
TTITLE4=Slokam (Sri Anjaneyam)  
TTITLE5=Tikamaka Makatika
TTITLE6=E Yogamanukonu 
EXTD=YEAR: 2004
EXTT0=
EXTT1=
EXTT2=
EXTT3=
EXTT4=
EXTT5=
EXTT6=
PLAYORDER=
